<svg version="1.2" xmlns="http://www.w3.org/2000/svg" viewBox="0 0 1347 232" width="140" height="20">
	<title>SVG-1</title>
	<defs>
		<linearGradient id="g1" x2="1" gradientUnits="userSpaceOnUse" gradientTransform="matrix(315.47,-55.375,55.371,315.449,32.47,129.636)">
			<stop offset="0" stop-color="#a78bfa"/>
			<stop offset="1" stop-color="#d2ccf2"/>
		</linearGradient>
	</defs>
	<style>
		.s0 { fill: url(#g1) }
		.s1 { fill: #ffffff }
	</style>
	<path class="s0" d="m94.7 74.2c2.9-2.9 7.6-2.9 10.5 0 2.9 2.9 2.9 7.6 0 10.5l-66.9 66.9c3 5.9 6.6 11.5 10.9 16.4l89.7-89.7c2.9-2.9 7.6-2.9 10.5 0 2.9 2.9 2.9 7.6 0 10.5l-89.6 89.6c5.2 4.2 10.8 7.7 16.9 10.5l66.3-66.4c2.9-2.9 7.6-2.9 10.5 0 2.9 2.9 2.9 7.7 0 10.6l-61.1 61.1c5.7 1.3 11.7 2.1 17.9 2.1 44.3 0 80.2-36 80.2-80.3 0-44.3-35.9-80.2-80.2-80.2-44.4 0-80.3 35.9-80.3 80.2 0 7 0.9 13.8 2.6 20.3z"/>
	<g>
		<path class="s1" d="m263.3 137.8q0 4.2 2.2 8 2.1 3.8 5.7 6.7 3.6 3 8.5 4.7 5 1.8 10.6 1.8 14.7 0 22.3-5.1 7.6-5 7.6-14.8 0-5.2-2.3-8.7-2.3-3.5-6.4-5.8-4-2.3-9.4-3.7-5.4-1.4-11.6-2.4-3.6-0.5-7.7-1.2-4.1-0.7-8.1-1.8-4-1.2-7.6-2.9-3.6-1.8-6.4-4.5-2.8-2.6-4.4-6.3-1.6-3.7-1.6-8.9 0-6 2-11.5 2.1-5.5 6.6-9.7 4.5-4.2 11.8-6.7 7.3-2.4 17.9-2.4 8.2 0 14.6 2.1 6.5 2.2 11 6 4.5 3.8 6.9 9.1 2.4 5.3 2.4 11.6h-11.9q0-4.1-1.7-7.5-1.7-3.3-4.8-5.7-3.1-2.5-7.5-3.8-4.5-1.3-9.9-1.3-7.4 0-12.3 1.7-4.9 1.6-7.9 4.3-2.9 2.7-4.1 6-1.2 3.4-1.2 6.8 0 4.5 2.1 7.5 2.2 2.9 6 4.9 3.9 2 9.2 3.1 5.4 1.1 11.8 1.9 4.2 0.7 8.5 1.7 4.3 0.9 8.4 2.4 4.1 1.4 7.6 3.6 3.5 2.1 6.2 5.2 2.6 3.1 4.2 7.3 1.5 4.1 1.5 9.6 0 7.2-2.8 12.8-2.9 5.6-8.3 9.5-5.5 3.8-13.3 5.9-7.8 2.1-17.6 2.1-9.2 0-16.4-2.8-7.2-2.8-12.2-7.2-4.9-4.5-7.5-10.1-2.5-5.7-2.5-11.5h11.8z"/>
		<path class="s1" d="m376.8 75.2h-32.9v-10.4h77.8v10.4h-33v92.1h-11.9z"/>
		<path class="s1" d="m439.6 64.8h67.5v10.6h-55.7v36h48.5v10.4h-48.5v35h56.4v10.5h-68.2z"/>
		<path class="s1" d="m591.3 143.3h-53l-10.2 24h-12.6l43.6-102.5h11.5l43.5 102.5h-12.6zm-48.6-10.3h44.3l-21.7-51.2-0.5-1.7-0.4 1.7z"/>
		<path class="s1" d="m677.7 132.9l-36.5-48.5v82.9h-11.8v-102.5h10.2l39.9 52.6 40-52.6h10.3v102.5h-11.8v-82.8l-36.7 48.4h-3.6z"/>
		<path class="s1" d="m885.1 64.8h18.5l-0.2 102.5h-21l-47.5-70.2-0.1 70.2h-21.2l-69-102.5h21.9l47.4 70.4 2.2 5.5h0.4v-75.9h18.7l47.3 70.4 2.4 5.5h0.3z"/>
		<path class="s1" d="m927.3 64.8h70.2v16.3h-51.5v27.4h44.5v16.2h-44.5v26.4h52.2v16.2h-70.9z"/>
		<path class="s1" d="m1016.1 167.3v-102.5h44.7q7 0 12.7 1.9 5.8 2 9.9 5.6 4.1 3.6 6.4 8.8 2.3 5.1 2.2 11.5 0 3.4-1 6.6-1 3.2-2.8 5.9-1.7 2.7-4.1 4.8-2.4 2-5.1 3.2 3.9 1.2 7.3 3.6 3.4 2.3 6 5.5 2.5 3.1 4 7.1 1.5 3.9 1.5 8.2 0 7.7-2.7 13.3-2.8 5.6-7.4 9.2-4.6 3.7-10.5 5.5-5.9 1.8-12.1 1.8zm18.7-59.8h24.9q2.6 0 4.9-1 2.4-1.1 4.3-2.8 1.8-1.8 2.9-4.3 1.1-2.5 1.1-5.4 0-2.9-1.1-5.4-1.1-2.4-2.9-4.3-1.9-1.8-4.3-2.8-2.3-1.1-4.9-1.1h-24.9zm28.4 44.2q2.7 0 5.4-1 2.7-1.1 4.9-3 2.2-1.9 3.5-4.6 1.4-2.8 1.4-6.3 0-3.3-1.2-6-1.2-2.7-3.3-4.7-2-2-4.7-3.1-2.8-1.1-5.9-1.1h-28.5v29.8z"/>
		<path class="s1" d="m1180.8 147.8h-47.2l-8.1 19.5h-19.8l42.7-102.5h17.7l42.7 102.5h-19.9zm-40.6-16.1h33.9l-16.3-39.6-0.6-2.6h-0.1l-0.6 2.6z"/>
		<path class="s1" d="m1241.3 133.9v33.4h-18.8v-102.5h43.2q7.7 0 14.3 2.6 6.5 2.6 11.2 7.2 4.8 4.6 7.4 11 2.6 6.4 2.6 13.8 0 7.7-2.6 13.9-2.6 6.3-7.3 10.9-4.7 4.6-11.2 7.1-6.4 2.6-14.1 2.6h-24.7zm23.7-16.2q3.7 0 6.9-1.4 3.2-1.4 5.5-3.9 2.4-2.4 3.7-5.7 1.4-3.3 1.4-7.2 0-3.8-1.4-7.2-1.3-3.3-3.7-5.8-2.4-2.5-5.6-4-3.2-1.5-6.9-1.5h-23.6v36.7h23.7z"/>
		<path class="s1" d="m1319.2 64.8h18.8v102.5h-18.8z"/>
	</g>
</svg>
